<svg xmlns="http://www.w3.org/2000/svg" xmlns:xlink="http://www.w3.org/1999/xlink" width="140" height="140" viewBox="0 0 140 140">
  <defs>
    <linearGradient id="linear-gradient" x1="0.723" y1="0.177" x2="0.247" y2="0.899" gradientUnits="objectBoundingBox">
      <stop offset="0" stop-color="#00cff8"/>
      <stop offset="0.454" stop-color="#00d5f5"/>
      <stop offset="1" stop-color="#00f5e4"/>
    </linearGradient>
    <clipPath id="clip-Thingsi_FullColor_Web">
      <rect width="140" height="140"/>
    </clipPath>
  </defs>
  <g id="Thingsi_FullColor_Web" clip-path="url(#clip-Thingsi_FullColor_Web)">
    <g id="Group_4402" data-name="Group 4402" transform="translate(-194 -311)">
      <path id="Union_27" data-name="Union 27" d="M19.3,61.427a7.981,7.981,0,1,1,7.98,7.978A7.979,7.979,0,0,1,19.3,61.427ZM7.9,54.091a4.566,4.566,0,1,1,4.566,4.565A4.566,4.566,0,0,1,7.9,54.091ZM19.3,38.217a11.5,11.5,0,1,1,11.5,11.5A11.5,11.5,0,0,1,19.3,38.217Zm58.954,1.3a7.11,7.11,0,1,1,7.11,7.108A7.109,7.109,0,0,1,78.249,39.52Zm-32.183-.613a7.318,7.318,0,1,1,7.318,7.316A7.317,7.317,0,0,1,46.066,38.907ZM0,38.246a7.979,7.979,0,1,1,7.979,7.977A7.978,7.978,0,0,1,0,38.246Zm96.88,1.478A2.675,2.675,0,1,1,99.555,42.4,2.675,2.675,0,0,1,96.88,39.725ZM64.469,34.718a5.007,5.007,0,1,1,5.008,5.006A5.006,5.006,0,0,1,64.469,34.718Zm27.143-6.551a3.639,3.639,0,1,1,3.64,3.639A3.639,3.639,0,0,1,91.612,28.167ZM8.79,20.706a6.656,6.656,0,1,1,6.657,6.654A6.655,6.655,0,0,1,8.79,20.706Zm45.622-3.074a9.3,9.3,0,1,1,9.3,9.3A9.3,9.3,0,0,1,54.412,17.632Zm23.06,4.52a4.565,4.565,0,1,1,4.566,4.565A4.565,4.565,0,0,1,77.472,22.152ZM25.942,12a12.006,12.006,0,1,1,12.006,12A12.006,12.006,0,0,1,25.942,12Z" transform="translate(197 346)" fill="url(#linear-gradient)"/>
      <path id="Path_8579" data-name="Path 8579" d="M2.15-60.12v3.242H7.142v9.5h3.445v-9.5h4.992V-60.12Zm19.084,4.789V-60.12H17.771v12.747h3.463v-4.808h7.645v4.808h3.445V-60.12H28.878v4.789Zm17.628,7.958V-60.12H35.4v12.747ZM53.1-52.623l-8.05-7.5H41.938v12.747h3.408v-7.479l8.05,7.479h3.095V-60.12H53.1Zm20.576-6.042a6.878,6.878,0,0,0-5.029-1.621H65.793c-4.439,0-6.963,2.616-6.963,6.521v.018c0,3.924,2.487,6.539,6.65,6.539h2.689a4.4,4.4,0,0,0,3.61-1.345l.184,1.179h2.045v-6.945H67.727v2.726h3.408v.258c-.424.682-1.455.976-2.745.976H65.7a3.192,3.192,0,0,1-3.463-3.389v-.018c0-2.026,1.253-3.371,3.555-3.371h2.855a4.263,4.263,0,0,1,3.095.976Zm15.731.129c-1.032-1.142-2.708-1.75-4.992-1.75H81.45c-3.316,0-5.231,1.455-5.231,3.942,0,1.676.9,3.168,3.426,3.574l5.268.571c.866.166,1.345.405,1.345,1.032,0,.645-.571.995-1.658.995H81.506a2.9,2.9,0,0,1-2.874-1.566L75.7-49.878c.921,1.75,2.855,2.671,5.747,2.671h3.095c3.15,0,5.047-1.529,5.047-3.887,0-1.824-.792-3.629-3.629-4.053l-4.937-.442c-1.216-.2-1.474-.442-1.474-.866,0-.571.663-.847,1.75-.847h3.021a3.555,3.555,0,0,1,2.763.939Zm5.913,11.163V-60.12H91.858v12.747Z" transform="translate(235.679 458.495)" fill="#303030"/>
    </g>
  </g>
</svg>
